<svg width="24" height="24" viewBox="0 0 24 24" xmlns="http://www.w3.org/2000/svg" xmlns:xlink="http://www.w3.org/1999/xlink"><title>icon-instagram</title><defs><path id="a" d="M0 21.997h21.993V.007H0z"/></defs><g fill="none" fill-rule="evenodd"><g transform="translate(1 1)"><mask id="b" fill="#fff"><use xlink:href="#a"/></mask><path d="M10.997.007C8.01.007 7.636.02 6.463.073c-1.17.054-1.97.24-2.67.511a5.39 5.39 0 0 0-1.947 1.269A5.39 5.39 0 0 0 .577 3.8C.305 4.5.12 5.3.067 6.47.012 7.643 0 8.017 0 11.003c0 2.987.013 3.361.066 4.534.054 1.17.24 1.97.511 2.67a5.39 5.39 0 0 0 1.269 1.947 5.39 5.39 0 0 0 1.947 1.269c.7.272 1.5.457 2.67.51 1.173.054 1.547.067 4.534.067 2.986 0 3.36-.013 4.533-.066 1.17-.054 1.97-.24 2.67-.511a5.39 5.39 0 0 0 1.947-1.269 5.39 5.39 0 0 0 1.269-1.947c.272-.7.457-1.5.51-2.67.054-1.173.067-1.547.067-4.534 0-2.986-.013-3.36-.066-4.533-.053-1.17-.24-1.97-.511-2.67a5.39 5.39 0 0 0-1.269-1.947A5.39 5.39 0 0 0 18.2.584c-.7-.272-1.5-.457-2.67-.51C14.357.02 13.983.006 10.997.006zm0 1.981c2.936 0 3.284.012 4.443.064 1.072.05 1.654.228 2.042.379.513.2.88.438 1.264.823.385.384.623.75.823 1.264.15.388.33.97.379 2.042.052 1.16.064 1.507.064 4.443 0 2.937-.012 3.284-.064 4.444-.05 1.072-.228 1.654-.379 2.042-.2.513-.438.88-.823 1.264a3.407 3.407 0 0 1-1.264.823c-.388.15-.97.33-2.042.379-1.16.052-1.507.064-4.443.064-2.937 0-3.285-.012-4.444-.064-1.072-.05-1.654-.229-2.042-.38a3.392 3.392 0 0 1-1.264-.822 3.407 3.407 0 0 1-.823-1.264c-.15-.388-.33-.97-.379-2.042-.052-1.16-.064-1.507-.064-4.444 0-2.936.012-3.284.064-4.443.05-1.072.229-1.654.38-2.042.199-.513.437-.88.822-1.264A3.407 3.407 0 0 1 4.51 2.43c.388-.15.97-.33 2.042-.379 1.16-.052 1.507-.064 4.444-.064z" fill="#0A0B09" mask="url(#b)"/></g><path d="M11.997 15.669a3.665 3.665 0 1 1 0-7.331 3.665 3.665 0 0 1 0 7.331zm0-9.312a5.647 5.647 0 1 0 0 11.293 5.647 5.647 0 0 0 0-11.293zm7.189-.223a1.32 1.32 0 1 1-2.64 0 1.32 1.32 0 0 1 2.64 0" fill="#0A0B09"/></g></svg>