<svg width="24" height="24" viewBox="0 0 24 24" xmlns="http://www.w3.org/2000/svg"><title>icon-twitter</title><g fill="none" fill-rule="evenodd"><path d="M20.214 8.246v.063c0 6.167-4.795 11.608-11.606 11.608-2.246 0-4.398-.643-6.255-1.833l-3.044-1.95 3.59.42a6.817 6.817 0 0 0 3.389-.458 4.625 4.625 0 0 1-2.21-2.656l-.377-1.175a4.61 4.61 0 0 1-.99-2.858v-.052l.002-.04.07-1.332.174.096a4.625 4.625 0 0 1 .41-3.722l.606-1.04.76.933a9.917 9.917 0 0 0 6.23 3.555 4.62 4.62 0 0 1 7.632-3.438 6.758 6.758 0 0 0 1.729-.724l1.886-1.12-.667 2.09c0-.002-.134.428-.18.567L23.8 4.093 22.2 6.49c-.386.578-.856.98-1.704 1.564l-.281.191z" stroke="#000" stroke-width="1.667" stroke-linejoin="round"/><path d="M2 2h20v20H2z"/></g></svg>