<svg width="96" height="102" viewBox="0 0 96 102" xmlns="http://www.w3.org/2000/svg" xmlns:xlink="http://www.w3.org/1999/xlink"><title>Artboard</title><defs><linearGradient x1="50%" y1="0%" x2="50%" y2="100%" id="c"><stop stop-color="#FFCE80" offset="0%"/><stop stop-color="#FF9480" offset="100%"/></linearGradient><path d="M30.306 1.244c2.872-1.66 7.53-1.658 10.402 0l25.105 14.494c2.872 1.658 5.2 5.693 5.2 9.008v28.99c0 3.316-2.33 7.35-5.2 9.008L40.708 77.238c-2.872 1.658-7.53 1.658-10.402 0L5.2 62.744C2.33 61.084 0 57.05 0 53.734V24.747c0-3.316 2.33-7.35 5.2-9.008L30.307 1.244z" id="b"/><filter x="-50%" y="-50%" width="200%" height="200%" filterUnits="objectBoundingBox" id="a"><feOffset dy="4" in="SourceAlpha" result="shadowOffsetOuter1"/><feGaussianBlur stdDeviation="5" in="shadowOffsetOuter1" result="shadowBlurOuter1"/><feColorMatrix values="0 0 0 0 0 0 0 0 0 0 0 0 0 0 0 0 0 0 0.372707201 0" in="shadowBlurOuter1"/></filter></defs><g fill="none" fill-rule="evenodd"><g transform="translate(12 9)"><use fill="#000" filter="url(#a)" xlink:href="#b"/><use fill="url(#c)" xlink:href="#b"/></g><path d="M57.503 48.36c.796-8.742-2.287-17.654-8.757-24.06-.393-.39-1.09-.39-1.482 0-6.47 6.406-9.553 15.308-8.757 24.06-2.237 2.385-3.467 5.46-3.467 8.732 0 3.304 1.27 6.447 3.578 8.842.564.59 2.005.32 1.773-.978-.12-.678-.27-1.337-.27-1.986 0-1.616.493-3.153 1.41-4.45.15.08.323.13.504.13h11.942c.18 0 .353-.05.504-.13a7.666 7.666 0 0 1 1.41 4.45c0 .65-.17 1.298-.27 1.986-.213 1.437 1.3 1.487 1.772.978 2.298-2.405 3.578-5.538 3.578-8.842a12.704 12.704 0 0 0-3.467-8.732zM48 26.535a27.75 27.75 0 0 1 4.595 6.626h-9.18A27.245 27.245 0 0 1 48 26.536zm-9.876 35.028a10.566 10.566 0 0 1-.977-4.47c0-2.116.614-4.142 1.763-5.88.01.08 1.11 4.243 1.532 5.31a9.653 9.653 0 0 0-2.318 5.04zm15.157-5H42.72c-2.963-6.885-2.933-14.58-.242-21.336h11.044c2.69 6.756 2.72 14.45-.24 21.337zm2.288-.04c.585-1.486 1.522-5.25 1.532-5.31a10.56 10.56 0 0 1 1.764 5.88 10.72 10.72 0 0 1-.978 4.47 9.81 9.81 0 0 0-2.318-5.04zm-11.81 3.863c-.585 0-1.05.47-1.05 1.038v5.22c0 .578.475 1.037 1.05 1.037.574 0 1.047-.468 1.047-1.037v-5.22c0-.578-.473-1.037-1.048-1.037zm4.242 0c-.292 0-.554.12-.746.31l-.01.01c-.12.12-.21.28-.262.458-.02.09-.04.18-.04.28v10.428a1.043 1.043 0 0 0 1.048 1.038 1.046 1.046 0 0 0 1.048-1.038V61.424c0-.1-.01-.19-.04-.28a1.016 1.016 0 0 0-.998-.758zm4.243 0c-.585 0-1.048.47-1.048 1.038v5.22c0 .578.473 1.037 1.048 1.037.574 0 1.048-.468 1.048-1.037v-5.22c.01-.578-.463-1.037-1.047-1.037z" fill="#FFF"/></g></svg>