<?xml version="1.0" encoding="UTF-8"?>
<svg width="24px" height="24px" viewBox="0 0 24 24" version="1.1" xmlns="http://www.w3.org/2000/svg" xmlns:xlink="http://www.w3.org/1999/xlink">
    <!-- Generator: Sketch 46.2 (44496) - http://www.bohemiancoding.com/sketch -->
    <title>icon-twitter</title>
    <desc>Created with Sketch.</desc>
    <defs></defs>
    <g id="Assets" stroke="none" stroke-width="1" fill="none" fill-rule="evenodd">
        <g id="icon-twitter">
            <g id="logo-twitter-bird.3.3.1" transform="translate(2.000000, 2.000000)">
                <g id="Outline_Icons" transform="translate(0.000000, 1.666667)" stroke="#000000" stroke-width="1.66666667" stroke-linejoin="round">
                    <path d="M18.2140475,4.57981025 C18.2141274,4.6004497 18.2141667,4.62133856 18.2141667,4.6425 C18.2141667,10.8096849 13.4191919,16.25 6.6075,16.25 C4.36210677,16.25 2.21028223,15.6074205 0.352962054,14.4175171 L-2.69071609,12.4675662 L0.899462958,12.8881603 C2.06486491,13.0246886 3.22645404,12.8646987 4.28752515,12.4292079 C3.25515231,11.8723505 2.44969526,10.9313073 2.07819977,9.77383259 L1.70089469,8.59825682 C1.07824314,7.80743677 0.710833333,6.81161952 0.710833333,5.74 C0.710812981,5.72051203 0.710812981,5.72051203 0.711316352,5.6883125 C0.711826273,5.66985208 0.711826273,5.66985208 0.712818476,5.64870097 L0.782968522,4.31585009 L0.957445938,4.41278199 C0.816455867,3.96793789 0.741666667,3.49730252 0.741666667,3.01416667 C0.741666667,2.18728055 0.959832161,1.39002738 1.36748973,0.690441112 L1.97333303,-0.349254164 L2.73349933,0.583569273 C4.29717159,2.50239958 6.50986598,3.77195689 8.9621218,4.13783604 C8.99717147,1.61724907 11.052155,-0.416666667 13.5816667,-0.416666667 C14.7047169,-0.416666667 15.7676737,-0.011757869 16.594894,0.700199265 C17.2027845,0.540193676 17.7841079,0.296155581 18.3239063,-0.02415757 L20.2099354,-1.14331606 L19.5430355,0.945910115 C19.5435564,0.944278268 19.4092787,1.37437754 19.3631687,1.51284719 L21.8004952,0.425931312 L20.1988577,2.82444278 C19.8132191,3.40195081 19.3430059,3.80453619 18.49455,4.38784153 C18.4591712,4.41216416 18.3179956,4.50862807 18.2140475,4.57981025 Z" id="Shape"></path>
                </g>
                <g id="Frames-24px">
                    <rect id="Rectangle-path" x="0" y="0" width="20" height="20"></rect>
                </g>
            </g>
        </g>
    </g>
</svg>